{
    "asset" : {
        "generator" : "Khronos glTF Blender I/O v1.8.19",
        "version" : "2.0"
    },
    "scene" : 0,
    "scenes" : [
        {
            "name" : "Scene",
            "nodes" : [
                0,
                1
            ]
        }
    ],
    "nodes" : [
        {
            "mesh" : 0,
            "name" : "TorusKnot",
            "rotation" : [
                0.7071068286895752,
                0,
                0,
                0.7071068286895752
            ]
        },
        {
            "mesh" : 1,
            "name" : "Sphere",
            "scale" : [
                0.30000001192092896,
                0.30000001192092896,
                0.30000001192092896
            ]
        }
    ],
    "materials" : [
        {
            "doubleSided" : true,
            "name" : "Material",
            "pbrMetallicRoughness" : {
                "baseColorFactor" : [
                    0.1651315689086914,
                    0.1195380836725235,
                    0.9130985736846924,
                    1
                ],
                "metallicFactor" : 0,
                "roughnessFactor" : 0.4000000059604645
            }
        }
    ],
    "meshes" : [
        {
            "name" : "TorusKnot",
            "primitives" : [
                {
                    "attributes" : {
                        "POSITION" : 0,
                        "NORMAL" : 1
                    },
                    "indices" : 2,
                    "material" : 0
                }
            ]
        },
        {
            "name" : "Sphere",
            "primitives" : [
                {
                    "attributes" : {
                        "POSITION" : 3,
                        "NORMAL" : 4,
                        "TEXCOORD_0" : 5
                    },
                    "indices" : 6
                }
            ]
        }
    ],
    "accessors" : [
        {
            "bufferView" : 0,
            "componentType" : 5126,
            "count" : 2560,
            "max" : [
                2.9047553539276123,
                2.233360528945923,
                2.9214372634887695
            ],
            "min" : [
                -2.9047553539276123,
                -2.2198069095611572,
                -2.9214372634887695
            ],
            "type" : "VEC3"
        },
        {
            "bufferView" : 1,
            "componentType" : 5126,
            "count" : 2560,
            "type" : "VEC3"
        },
        {
            "bufferView" : 2,
            "componentType" : 5123,
            "count" : 3840,
            "type" : "SCALAR"
        },
        {
            "bufferView" : 3,
            "componentType" : 5126,
            "count" : 559,
            "max" : [
                0.9999997019767761,
                1,
                0.9999994039535522
            ],
            "min" : [
                -0.9999990463256836,
                -1,
                -0.9999987483024597
            ],
            "type" : "VEC3"
        },
        {
            "bufferView" : 4,
            "componentType" : 5126,
            "count" : 559,
            "type" : "VEC3"
        },
        {
            "bufferView" : 5,
            "componentType" : 5126,
            "count" : 559,
            "type" : "VEC2"
        },
        {
            "bufferView" : 6,
            "componentType" : 5123,
            "count" : 2880,
            "type" : "SCALAR"
        }
    ],
    "bufferViews" : [
        {
            "buffer" : 0,
            "byteLength" : 30720,
            "byteOffset" : 0
        },
        {
            "buffer" : 0,
            "byteLength" : 30720,
            "byteOffset" : 30720
        },
        {
            "buffer" : 0,
            "byteLength" : 7680,
            "byteOffset" : 61440
        },
        {
            "buffer" : 0,
            "byteLength" : 6708,
            "byteOffset" : 69120
        },
        {
            "buffer" : 0,
            "byteLength" : 6708,
            "byteOffset" : 75828
        },
        {
            "buffer" : 0,
            "byteLength" : 4472,
            "byteOffset" : 82536
        },
        {
            "buffer" : 0,
            "byteLength" : 5760,
            "byteOffset" : 87008
        }
    ],
    "buffers" : [
        {
            "byteLength" : 92768,
            "uri" : "test.bin"
        }
    ]
}
